<?xml version="1.0" standalone="no"?>
<!DOCTYPE svg PUBLIC "-//W3C//DTD SVG 20010904//EN"
 "http://www.w3.org/TR/2001/REC-SVG-20010904/DTD/svg10.dtd">
<svg version="1.0" xmlns="http://www.w3.org/2000/svg"
 width="35.000000pt" height="30.000000pt" viewBox="0 0 405.000000 383.000000"
 preserveAspectRatio="xMidYMid meet">

<g transform="translate(0.000000,383.000000) scale(0.100000,-0.100000)"
fill="#000" stroke="none">
<path d="M3452 3246 c-51 -89 -98 -170 -105 -179 -7 -10 -171 -70 -401 -147
l-390 -130 -110 44 c-301 119 -610 108 -903 -31 l-74 -35 -386 129 -386 129
-103 179 -104 180 1 -245 0 -245 253 -335 c181 -240 251 -340 248 -354 -5 -17
-9 -14 -35 17 -16 21 -33 35 -37 32 -9 -6 3 -66 23 -113 10 -25 11 -44 3 -82
-5 -28 -13 -50 -17 -50 -4 0 -36 39 -71 87 -54 75 -63 84 -66 63 -6 -41 17
-101 74 -191 42 -68 52 -92 46 -109 -7 -19 -13 -15 -57 49 -28 39 -53 71 -57
71 -14 0 -8 -49 11 -99 10 -27 39 -80 65 -118 28 -43 46 -80 46 -98 0 -26 -6
-21 -60 53 -33 45 -63 82 -67 82 -12 0 7 -91 28 -133 12 -23 48 -79 80 -124
33 -45 71 -113 85 -150 125 -334 418 -595 774 -689 93 -25 123 -28 265 -29
122 0 179 4 240 19 335 77 607 290 766 599 28 54 72 122 97 150 104 115 171
229 180 302 2 25 2 45 -1 45 -3 0 -33 -37 -66 -82 -98 -134 -120 -155 -106
-101 3 15 29 56 56 92 69 92 121 199 117 242 -3 34 -3 34 -78 -66 -73 -98 -75
-99 -78 -68 -3 26 7 46 47 99 28 37 63 91 77 120 27 55 43 134 28 134 -5 -1
-42 -46 -83 -102 -77 -106 -81 -108 -96 -41 -5 25 0 46 19 85 29 60 48 136 36
143 -5 3 -25 -18 -46 -46 l-38 -52 -17 41 c-17 40 -17 42 4 94 13 31 112 174
245 350 l222 298 -2 239 -3 240 -93 -163z m-1157 -480 c182 -50 323 -131 451
-260 135 -136 221 -286 271 -474 23 -85 26 -117 26 -252 0 -135 -3 -167 -26
-252 -30 -112 -86 -238 -147 -329 -61 -90 -201 -226 -292 -282 -81 -51 -220
-111 -278 -121 l-35 -6 35 14 c288 111 500 350 580 651 24 91 36 280 23 365
l-8 55 -75 3 c-41 2 -99 0 -128 -3 -48 -6 -52 -8 -35 -20 26 -19 9 -30 -26
-15 -34 14 -66 7 -75 -17 -9 -22 10 -41 47 -48 72 -15 100 -64 60 -107 -20
-23 -90 -24 -121 -2 -32 22 -17 37 18 19 37 -19 65 -19 84 1 22 22 5 51 -36
59 -73 15 -101 63 -61 107 15 17 14 18 -44 18 -33 0 -81 -3 -107 -6 l-46 -7 0
-88 0 -89 53 0 c57 0 94 -14 66 -25 -9 -3 -45 -5 -80 -3 l-64 3 -1 100 -2 100
-38 0 -39 0 -1 -100 c-1 -62 -6 -101 -13 -103 -8 -3 -11 29 -11 102 l0 106
-40 0 -40 0 0 -105 c0 -87 -3 -105 -15 -105 -12 0 -15 19 -15 114 l0 114 63 6
c34 3 148 8 252 11 105 3 251 8 326 12 l137 6 -23 71 c-52 164 -133 295 -256
410 -212 200 -494 285 -779 236 -261 -44 -503 -216 -638 -452 -106 -186 -156
-460 -115 -627 4 -15 2 -22 -5 -18 -19 12 -35 177 -29 302 12 261 118 497 304
676 135 131 286 216 453 257 120 30 130 31 275 27 100 -3 151 -9 220 -29z
m-754 -934 c20 -22 29 -43 29 -67 0 -77 -44 -115 -134 -115 l-56 0 0 111 0
111 66 -4 c60 -4 70 -7 95 -36z m257 26 c-3 -8 -28 -14 -66 -16 l-62 -3 0 -34
0 -35 60 0 c33 0 60 -4 60 -10 0 -6 -27 -10 -60 -10 l-60 0 0 -37 0 -38 62 0
c40 0 63 -4 65 -12 4 -10 -16 -13 -76 -13 l-81 0 0 110 0 110 81 0 c60 0 80
-3 77 -12z m113 -73 c19 -47 38 -84 42 -82 5 1 24 38 42 82 18 43 38 81 44 83
17 6 14 -6 -31 -116 -28 -67 -47 -102 -56 -100 -10 2 -102 194 -102 214 0 2 6
4 13 4 8 0 29 -37 48 -85z"/>
<path d="M1412 1758 c3 -80 4 -82 28 -82 80 1 121 46 100 110 -14 41 -35 54
-90 54 l-41 0 3 -82z"/>
</g>
</svg>
